<svg xmlns="http://www.w3.org/2000/svg" width="900" height="425" viewBox="0 0 900 425" version="1.1"><path d="M 423.500 43 C 423.160 43.550, 420.460 44, 417.500 44 C 414.540 44, 411.840 44.450, 411.500 45 C 411.160 45.550, 409.784 46, 408.441 46 C 407.098 46, 406 46.450, 406 47 C 406 47.550, 404.762 48.007, 403.250 48.015 C 399.989 48.032, 394.012 50.025, 386.831 53.489 C 383.968 54.870, 381.090 56, 380.435 56 C 379.781 56, 378.666 56.697, 377.959 57.550 C 377.252 58.402, 374.834 60.001, 372.586 61.104 C 362.253 66.176, 361.893 66.467, 344 84.201 C 327.920 100.138, 325.833 102.527, 324.044 107.046 C 323.292 108.946, 321.941 111.400, 321.043 112.500 C 320.144 113.600, 318.755 115.850, 317.956 117.500 C 317.157 119.150, 316.277 120.725, 316.002 121 C 314.658 122.339, 311 130.410, 311 132.035 C 311 133.051, 310.550 134.160, 310 134.500 C 309.450 134.840, 309 136.441, 309 138.059 C 309 139.677, 308.550 141, 308 141 C 307.450 141, 307 142.098, 307 143.441 C 307 144.784, 306.550 146.160, 306 146.500 C 305.450 146.840, 305 149.540, 305 152.500 C 305 155.460, 304.550 158.160, 304 158.500 C 303.450 158.840, 303 160.640, 303 162.500 C 303 164.360, 302.550 166.160, 302 166.500 C 301.392 166.876, 301 174.324, 301 185.500 C 301 196.676, 301.392 204.124, 302 204.500 C 302.550 204.840, 303 206.640, 303 208.500 C 303 210.360, 303.450 212.160, 304 212.500 C 304.550 212.840, 305 215.540, 305 218.500 C 305 221.460, 305.450 224.160, 306 224.500 C 306.550 224.840, 307 226.216, 307 227.559 C 307 228.902, 307.450 230, 308 230 C 308.550 230, 309 230.756, 309 231.679 C 309 235.185, 314.548 249.077, 316.250 249.833 C 316.663 250.017, 317 251.106, 317 252.255 C 317 253.403, 317.748 255.169, 318.661 256.178 C 320.344 258.038, 321.872 260.466, 324.210 265 C 324.920 266.375, 326.738 268.804, 328.250 270.398 C 329.762 271.992, 331 273.824, 331 274.468 C 331 275.113, 332.575 276.896, 334.500 278.431 C 336.425 279.966, 338 281.775, 338 282.452 C 338 284.295, 355.074 299.821, 358.294 300.907 C 358.957 301.130, 360.175 302.040, 361 302.930 C 361.825 303.819, 363.625 305.116, 365 305.813 C 368.860 307.768, 371.635 309.453, 373.371 310.893 C 377.899 314.651, 397.935 323, 402.426 323 C 403.292 323, 404 323.450, 404 324 C 404 324.550, 405.548 325, 407.441 325 C 409.334 325, 411.160 325.450, 411.500 326 C 411.840 326.550, 414.026 327, 416.359 327 C 418.692 327, 421.066 327.466, 421.637 328.037 C 422.318 328.718, 430.532 328.924, 445.587 328.639 C 469.072 328.194, 477.780 327.491, 479.450 325.903 C 479.973 325.406, 481.633 325, 483.141 325 C 484.649 325, 486.160 324.550, 486.500 324 C 486.840 323.450, 488.190 323, 489.500 323 C 490.810 323, 492.160 322.550, 492.500 322 C 492.840 321.450, 493.990 321, 495.056 321 C 497.090 321, 518.632 310.254, 525.500 305.813 C 527.700 304.391, 530.822 301.826, 532.437 300.113 C 534.052 298.401, 535.845 297, 536.420 297 C 537.890 297, 558 276.801, 558 275.325 C 558 274.658, 558.794 273.525, 559.765 272.807 C 560.736 272.088, 562.104 270.375, 562.805 269 C 565.244 264.214, 566.763 261.856, 569.124 259.186 C 572.282 255.616, 574 252.438, 574 250.169 C 574 249.146, 574.900 247.495, 576 246.500 C 577.100 245.505, 578 243.661, 578 242.404 C 578 241.147, 578.450 239.840, 579 239.500 C 579.550 239.160, 580 237.810, 580 236.500 C 580 235.190, 580.450 233.840, 581 233.500 C 581.550 233.160, 582 231.810, 582 230.500 C 582 229.190, 582.450 227.840, 583 227.500 C 583.550 227.160, 584 225.334, 584 223.441 C 584 221.548, 584.450 220, 585 220 C 585.550 220, 586 217.552, 586 214.559 C 586 211.566, 586.450 208.840, 587 208.500 C 587.618 208.118, 588 199.343, 588 185.500 C 588 171.657, 587.618 162.882, 587 162.500 C 586.450 162.160, 586 159.460, 586 156.500 C 586 153.540, 585.550 150.840, 585 150.500 C 584.450 150.160, 584 148.784, 584 147.441 C 584 146.098, 583.550 145, 583 145 C 582.450 145, 582 143.452, 582 141.559 C 582 139.666, 581.550 137.840, 581 137.500 C 580.450 137.160, 580 136.107, 580 135.160 C 580 132.937, 568.176 109.311, 564.960 105.109 C 563.607 103.341, 561.038 100.176, 559.250 98.076 C 557.462 95.976, 556 93.852, 556 93.357 C 556 92.098, 539.692 76, 538.416 76 C 537.843 76, 536.052 74.612, 534.437 72.915 C 531.348 69.671, 523.483 64, 522.072 64 C 521.617 64, 520.733 63.383, 520.107 62.629 C 518.068 60.172, 497.093 50, 494.066 50 C 492.444 50, 490.840 49.550, 490.500 49 C 490.160 48.450, 488.784 48, 487.441 48 C 486.098 48, 485 47.550, 485 47 C 485 46.450, 483.452 46, 481.559 46 C 479.666 46, 477.840 45.550, 477.500 45 C 477.160 44.450, 474.910 44, 472.500 44 C 470.090 44, 467.840 43.550, 467.500 43 C 466.664 41.647, 424.336 41.647, 423.500 43 M 393.571 123.571 C 390.788 126.355, 391.861 128.636, 398.750 134.578 C 402.462 137.781, 405.670 140.518, 405.877 140.661 C 406.084 140.803, 407.477 150.169, 408.973 161.473 C 410.468 172.777, 411.982 182.315, 412.336 182.670 C 413.904 184.237, 424.237 184.879, 447.500 184.853 C 461.250 184.837, 474.733 184.527, 477.461 184.162 C 482.018 183.554, 482.520 183.215, 483.615 180 C 484.906 176.208, 488.737 156.013, 489.687 147.992 C 490.065 144.806, 489.848 142.522, 489.081 141.598 C 487.832 140.093, 487.663 140.073, 454 137.480 C 443.275 136.653, 429.399 135.520, 423.163 134.961 L 411.827 133.945 404.888 127.972 C 397.523 121.634, 396.073 121.070, 393.571 123.571 M 416.537 148.636 C 416.927 151.861, 417.696 155.063, 418.246 155.750 C 418.837 156.489, 421.595 157, 425 157 C 428.450 157, 431.121 156.499, 431.670 155.750 C 432.686 154.361, 432.576 145.243, 431.531 144.197 C 431.165 143.831, 427.482 143.361, 423.347 143.152 L 415.828 142.773 416.537 148.636 M 441.200 150.750 L 441.500 156.500 448.500 156.500 L 455.500 156.500 455.811 151.597 C 456.192 145.586, 455.472 145.035, 447.200 145.015 L 440.900 145 441.200 150.750 M 465.195 151.750 L 465.500 156.500 472 156.500 L 478.500 156.500 479.645 153 C 481.295 147.953, 480.052 147, 471.823 147 L 464.890 147 465.195 151.750 M 419.498 166.003 C 419.157 166.555, 419.182 169.030, 419.553 171.503 L 420.227 176 426.114 176 C 429.351 176, 432.041 175.550, 432.091 175 C 432.141 174.450, 432.182 172.650, 432.182 171 C 432.182 164.793, 432.393 165, 426.059 165 C 422.791 165, 419.839 165.451, 419.498 166.003 M 441.708 165.626 C 441.318 166.015, 441 168.508, 441 171.167 L 441 176 448.552 176 L 456.105 176 455.802 170.750 L 455.500 165.500 448.958 165.209 C 445.359 165.049, 442.097 165.237, 441.708 165.626 M 465 170.500 L 465 176 469.941 176 C 472.659 176, 475.090 175.662, 475.344 175.250 C 475.598 174.838, 476.125 172.363, 476.516 169.750 L 477.227 165 471.114 165 L 465 165 465 170.500 M 412.655 189.829 C 409.175 193.674, 411.669 199, 416.949 199 C 420.325 199, 422.250 196.940, 422.250 193.325 C 422.250 188.484, 415.949 186.189, 412.655 189.829 M 473.571 189.571 C 470.035 193.107, 472.723 199, 477.871 199 C 481.475 199, 483 197.316, 483 193.335 C 483 188.430, 477.077 186.066, 473.571 189.571 M 392.077 228.589 C 388.006 232.014, 387.691 238.422, 391.421 241.926 C 394.119 244.460, 400.062 245.023, 402.527 242.978 C 405.178 240.778, 404.162 239.797, 399.965 240.506 C 394.975 241.349, 393 239.929, 393 235.500 C 393 231.071, 394.975 229.651, 399.965 230.494 C 403.112 231.026, 404 230.862, 404 229.748 C 404 228.172, 399.961 226, 397.030 226 C 395.998 226, 393.769 227.165, 392.077 228.589 M 375.655 232.829 C 373.458 235.256, 373.550 240.283, 375.829 242.345 C 376.835 243.255, 378.975 244, 380.585 244 C 383.140 244, 383.677 243.476, 384.797 239.886 C 385.898 236.359, 385.858 235.432, 384.517 233.386 C 382.608 230.472, 378.047 230.185, 375.655 232.829 M 408.073 233.635 C 405.678 236.679, 405.586 237.345, 407.150 240.316 C 408.708 243.276, 409.940 243.967, 413.693 243.985 C 419.345 244.012, 422.068 237.068, 418 233 C 415.122 230.122, 410.608 230.411, 408.073 233.635 M 423.578 231.755 C 423.260 232.073, 423 234.958, 423 238.167 C 423 242.685, 423.338 244, 424.500 244 C 425.575 244, 426 242.902, 426 240.122 C 426 236.430, 427.938 233.271, 429.342 234.675 C 429.704 235.037, 430.007 236.721, 430.015 238.417 C 430.024 240.112, 430.423 242.120, 430.904 242.878 C 432.352 245.165, 434 243.126, 434 239.048 C 434 236.893, 434.547 235.013, 435.250 234.754 C 437.881 233.787, 439 235.228, 439 239.583 C 439 242.692, 439.413 244, 440.393 244 C 443.195 244, 443.986 236.853, 441.566 233.397 C 440.334 231.639, 439.003 231.338, 432.144 231.264 C 427.751 231.216, 423.896 231.437, 423.578 231.755 M 445.383 232.445 C 444.454 234.866, 445.478 243.336, 446.750 243.755 C 447.572 244.026, 448 243.090, 448 241.018 C 448 239.286, 448.481 236.969, 449.070 235.870 C 450.684 232.853, 453 235.359, 453 240.122 C 453 242.902, 453.425 244, 454.500 244 C 455.575 244, 456 242.902, 456 240.122 C 456 232.971, 460.598 232.422, 461.176 239.505 C 461.407 242.339, 462.003 243.579, 463.250 243.815 C 464.713 244.092, 465 243.385, 465 239.508 C 465 231.790, 464.343 231.272, 454.478 231.199 C 448.272 231.153, 445.746 231.499, 445.383 232.445 M 468.174 233.314 C 463.802 237.969, 466.768 244.200, 473.357 244.200 C 477.592 244.200, 477.888 244.038, 478.492 241.385 C 478.728 240.348, 479.187 238.598, 479.513 237.495 C 480.330 234.727, 476.671 231, 473.135 231 C 471.515 231, 469.438 231.969, 468.174 233.314 M 482.737 236.389 C 482.468 239.190, 482.472 242.067, 482.747 242.783 C 483.648 245.131, 485.481 243.410, 486.094 239.640 C 486.424 237.607, 487.507 235.350, 488.500 234.624 C 490.900 232.869, 489.662 231.115, 486.096 231.216 C 483.389 231.293, 483.198 231.588, 482.737 236.389 M 492.250 232.916 C 489.626 235.137, 489.353 238.631, 491.557 241.777 C 492.718 243.435, 494.115 244, 497.057 244 C 500.645 244, 501.464 243.391, 500.750 241.250 C 500.613 240.838, 499.160 240.500, 497.523 240.500 C 495.456 240.500, 494.437 239.950, 494.190 238.702 C 493.639 235.912, 495.853 233.925, 498.713 234.643 C 500.767 235.158, 501.136 234.940, 500.841 233.383 C 500.340 230.745, 495.148 230.462, 492.250 232.916 M 504.989 234.250 C 502.555 238.243, 502.555 238.164, 504.977 241.244 C 509.006 246.366, 515.363 245.315, 516.328 239.368 C 517.192 234.041, 515.060 231, 510.462 231 C 507.596 231, 506.616 231.582, 504.989 234.250 M 378.688 234.646 C 377.383 235.950, 378.006 237, 380.083 237 C 381.247 237, 381.992 236.476, 381.771 235.813 C 381.284 234.351, 379.614 233.719, 378.688 234.646 M 411.200 235.200 C 409.305 237.095, 409.798 239.801, 412.174 240.555 C 415.048 241.467, 417.371 238.561, 415.926 235.862 C 414.782 233.724, 412.935 233.465, 411.200 235.200 M 471 235.500 C 471 236.333, 471.889 237, 473 237 C 474.111 237, 475 236.333, 475 235.500 C 475 234.667, 474.111 234, 473 234 C 471.889 234, 471 234.667, 471 235.500 M 508.701 234.632 C 507.334 235.999, 508.028 237.135, 510.040 236.820 C 511.161 236.644, 512.085 236.050, 512.092 235.500 C 512.109 234.283, 509.674 233.660, 508.701 234.632 M 297.137 332.369 C 291.684 334.343, 285.944 339.880, 283.248 345.769 C 281.078 350.510, 280.815 352.247, 281.188 359.364 C 282.040 375.600, 290.362 384, 305.594 384 C 317.470 384, 327 376.915, 327 368.085 C 327 364.781, 324.286 362.569, 321.530 363.627 C 320.642 363.968, 319.078 365.879, 318.055 367.873 C 315.204 373.431, 311.705 376.166, 306.728 376.727 C 296.917 377.833, 291.969 371.450, 292.048 357.790 C 292.104 348.079, 293.816 343.704, 298.898 340.286 C 305.482 335.857, 313.139 337.968, 317.503 345.415 C 320.400 350.358, 322.252 351.471, 325.072 349.961 C 326.411 349.245, 327 347.862, 327 345.439 C 327 342.664, 326.128 341.077, 322.750 337.704 C 320.287 335.244, 316.770 332.943, 314.384 332.230 C 309.269 330.702, 301.573 330.764, 297.137 332.369 M 246.500 347.434 C 242.234 349.513, 240.523 351.078, 238.774 354.500 C 235.238 361.418, 235.487 370.421, 239.376 376.277 C 244.303 383.696, 256.980 386.252, 266 381.645 C 268.475 380.381, 271.171 378.156, 271.990 376.700 C 273.339 374.305, 273.314 373.885, 271.730 372.301 C 270.062 370.633, 269.701 370.703, 264.112 373.775 C 256.740 377.828, 253.180 377.905, 249.106 374.099 C 243.440 368.806, 244.519 368, 257.277 368 C 270.520 368, 273 366.971, 273 361.477 C 273 356.634, 270.407 351.818, 266.275 348.986 C 261.863 345.963, 251.230 345.128, 246.500 347.434 M 344.804 347.987 C 337.514 351.943, 334.183 359.366, 335.563 368.574 C 336.929 377.679, 344.636 383.938, 354.500 383.950 C 367.020 383.965, 375.308 374.557, 373.620 362.243 C 372.821 356.417, 370.689 352.627, 366.344 349.313 C 361.420 345.557, 350.518 344.886, 344.804 347.987 M 382.035 347.934 C 381.455 349.018, 381 356.392, 381 364.712 C 381 380.415, 381.911 384, 385.902 384 C 389.921 384, 391 380.955, 391 369.606 C 391 356.023, 392.326 353.047, 398.390 353.015 C 403.136 352.990, 403.929 355.179, 404 368.500 C 404.044 376.848, 404.468 381.033, 405.392 382.250 C 406.927 384.272, 411.503 384.586, 412.691 382.750 C 413.136 382.063, 413.725 375.947, 414 369.161 C 414.464 357.705, 414.669 356.685, 416.861 354.911 C 420.005 352.366, 423.532 352.494, 425.443 355.223 C 426.624 356.909, 427 360.113, 427 368.500 C 427 380.461, 428.186 384, 432.196 384 C 436.163 384, 436.935 381.331, 436.964 367.500 C 436.995 353.475, 435.852 349.597, 430.910 346.952 C 427.732 345.251, 418.495 346.242, 415.936 348.558 C 413.876 350.422, 413.778 350.417, 409.973 348.227 C 405.178 345.467, 399.642 345.378, 394.541 347.979 C 390.673 349.951, 390.654 349.951, 389.273 347.979 C 387.496 345.442, 383.383 345.416, 382.035 347.934 M 445.975 348.565 C 444.516 352.404, 444.762 377.969, 446.288 381 C 447.701 383.808, 452.052 384.860, 453.731 382.801 C 454.314 382.085, 454.951 376.305, 455.146 369.955 C 455.567 356.261, 456.948 353, 462.323 353 C 467.514 353, 467.998 354.186, 468.015 366.950 C 468.031 379.553, 469.097 383.292, 472.830 383.827 C 477.060 384.433, 477.728 382.707, 478.181 370.003 C 478.570 359.112, 478.819 357.822, 480.978 355.523 C 483.874 352.441, 488.469 352.140, 489.965 354.934 C 490.534 355.998, 491.007 361.736, 491.015 367.684 C 491.031 379.841, 492.135 383.335, 496.109 383.801 C 500.670 384.336, 501.174 382.441, 500.823 366.085 C 500.524 352.176, 500.336 350.886, 498.309 348.862 C 494.981 345.538, 486.392 345.089, 481.263 347.973 L 477.340 350.177 473.920 348.092 C 469.578 345.445, 463.574 345.409, 458.739 348 C 456.686 349.100, 454.833 350, 454.620 350 C 454.407 350, 453.998 349.100, 453.710 348 C 452.880 344.823, 447.241 345.235, 445.975 348.565 M 520.500 347.573 C 513.414 351.258, 510.704 356.284, 510.787 365.584 C 510.886 376.552, 516.966 382.826, 528.385 383.743 C 533.716 384.171, 535.633 383.872, 539.467 382.016 C 544.490 379.584, 547.567 375.921, 546.633 373.485 C 545.546 370.653, 543.052 370.777, 538.341 373.898 C 530.973 378.778, 524.403 377.726, 521.014 371.123 C 519.167 367.525, 521.051 366.913, 533.135 367.191 C 545.199 367.468, 547 366.721, 547 361.443 C 547 356.791, 545.577 353.569, 542.022 350.171 C 537.420 345.774, 526.495 344.454, 520.500 347.573 M 556.200 347.200 C 555.363 348.037, 555 353.422, 555 365 C 555 382.418, 555.375 384, 559.500 384 C 563.339 384, 563.998 382.124, 564.048 371.050 C 564.084 363.182, 564.533 359.610, 565.813 357 C 567.459 353.644, 567.756 353.498, 573.050 353.441 C 579.035 353.378, 581 352.650, 581 350.498 C 581 346.498, 570.447 344.381, 566.829 347.655 C 565.127 349.195, 564.873 349.195, 563.171 347.655 C 561.023 345.711, 557.893 345.507, 556.200 347.200 M 594.500 347.508 C 587.223 351.449, 584 356.945, 584 365.411 C 584 371.196, 586.610 377.313, 590.170 379.875 C 599.630 386.682, 614.769 384.600, 619.455 375.849 C 621.100 372.776, 621.200 371.945, 620.082 370.599 C 617.917 367.991, 615.009 368.750, 610.884 373 C 606.233 377.792, 602.131 378.295, 597.556 374.635 C 594.957 372.555, 594.565 371.527, 594.203 365.840 C 593.831 359.998, 594.042 359.103, 596.485 356.200 C 598.697 353.572, 599.900 353, 603.221 353 C 606.546 353, 607.850 353.621, 610.565 356.500 C 614.590 360.768, 618.646 361.260, 619.566 357.593 C 620.337 354.521, 618.826 351.725, 614.875 348.911 C 610.676 345.921, 598.925 345.112, 594.500 347.508 M 638.450 347.353 C 630.047 351.160, 625.953 362.514, 629.449 372.316 C 631.228 377.304, 633.240 379.423, 638.585 381.935 C 644.358 384.648, 651.696 384.623, 657.552 381.870 C 662.768 379.419, 665.900 374.789, 663.940 372.428 C 662.260 370.403, 661.082 370.642, 656.100 374.018 C 649.007 378.824, 641.311 377.578, 638.898 371.232 C 637.469 367.473, 638.999 366.962, 651.258 367.106 C 663.555 367.250, 665 366.611, 665 361.025 C 665 356.854, 662.053 351.834, 657.718 348.623 C 654.207 346.022, 643.017 345.284, 638.450 347.353 M 249.289 355.250 C 248.157 356.488, 246.923 358.512, 246.548 359.750 C 245.875 361.968, 245.994 362, 254.933 362 C 260.684 362, 264 361.610, 264 360.934 C 264 359.290, 261.851 355.636, 260.087 354.282 C 257.390 352.211, 251.595 352.731, 249.289 355.250 M 347.589 356.077 C 343.240 361.245, 344.146 370.998, 349.367 375.228 C 354.080 379.046, 361.990 375.873, 363.583 369.526 C 364.717 365.008, 363.416 358.072, 360.942 355.438 C 357.421 351.691, 351.022 351.997, 347.589 356.077 M 523.783 354.750 C 522.197 356.568, 520 360.450, 520 361.434 C 520 361.745, 524.050 362, 529 362 C 534.703 362, 538 361.610, 538 360.934 C 538 359.290, 535.851 355.636, 534.087 354.282 C 531.682 352.436, 525.560 352.714, 523.783 354.750 M 640.589 356.077 C 636.154 361.347, 636.861 362, 647 362 C 656.378 362, 656.964 361.678, 654.837 357.684 C 653.060 354.348, 650.857 353.067, 646.839 353.032 C 643.957 353.007, 642.627 353.655, 640.589 356.077" stroke="none" fill="#17b3e0" fill-rule="evenodd"/></svg>